            <svg width="40" xmlns="http://www.w3.org/2000/svg" height="40"
              id="screenshot-5eefe9ba-7673-80e3-8006-b48674281607" viewBox="-37.5 4402 40 40"
              style="-webkit-print-color-adjust::exact" xmlns:xlink="http://www.w3.org/1999/xlink" fill="none"
              version="1.1">
              <g id="shape-5eefe9ba-7673-80e3-8006-b48674281607">
                <defs>
                  <clipPath id="frame-clip-5eefe9ba-7673-80e3-8006-b48674281607-render-2666"
                    class="frame-clip frame-clip-def">
                    <rect rx="20" ry="20" x="-37.5" y="4402" width="40" height="40"
                      transform="matrix(1.000000, 0.000000, 0.000000, 1.000000, 0.000000, 0.000000)">
                    </rect>
                  </clipPath>
                </defs>
                <g class="frame-container-wrapper" opacity="1">
                  <g class="frame-container-blur">
                    <g class="frame-container-shadows">
                      <g clip-path="url(#frame-clip-5eefe9ba-7673-80e3-8006-b48674281607-render-2666)" fill="none">
                        <g class="fills" id="fills-5eefe9ba-7673-80e3-8006-b48674281607">
                          <rect rx="20" ry="20" x="-37.5" y="4402" width="40" height="40"
                            transform="matrix(1.000000, 0.000000, 0.000000, 1.000000, 0.000000, 0.000000)"
                            class="frame-background" style="fill:#ffffff;fill-opacity:1">
                          </rect>
                        </g>
                        <g class="frame-children">
                          <g id="shape-5eefe9ba-7673-80e3-8006-b48674281609">
                            <defs>
                              <clipPath id="frame-clip-5eefe9ba-7673-80e3-8006-b48674281609-render-2667"
                                class="frame-clip frame-clip-def">
                                <rect rx="0" ry="0" x="-27.5" y="4412" width="20" height="20"
                                  transform="matrix(1.000000, 0.000000, 0.000000, 1.000000, 0.000000, 0.000000)">
                                </rect>
                              </clipPath>
                            </defs>
                            <g class="frame-container-wrapper" opacity="1">
                              <g class="frame-container-blur">
                                <g class="frame-container-shadows">
                                  <g clip-path="url(#frame-clip-5eefe9ba-7673-80e3-8006-b48674281609-render-2667)"
                                    fill="none">
                                    <g class="fills" id="fills-5eefe9ba-7673-80e3-8006-b48674281609">
                                      <rect rx="0" ry="0" x="-27.5" y="4412" width="20" height="20"
                                        transform="matrix(1.000000, 0.000000, 0.000000, 1.000000, 0.000000, 0.000000)"
                                        class="frame-background" style="fill:#ffffff;fill-opacity:0">
                                      </rect>
                                    </g>
                                    <g class="frame-children">
                                      <g id="shape-5eefe9ba-7673-80e3-8006-b4867428160b" style="opacity:1">
                                        <g class="fills" id="fills-5eefe9ba-7673-80e3-8006-b4867428160b">
                                          <path
                                            d="M-15,4422C-15,4422.6630859375,-15.263392448425293,4423.298828125,-15.732233047485352,4423.767578125C-16.201074600219727,4424.23681640625,-16.836957931518555,4424.5,-17.5,4424.5C-18.163042068481445,4424.5,-18.798925399780273,4424.23681640625,-19.26776695251465,4423.767578125C-19.736608505249023,4423.298828125,-20,4422.6630859375,-20,4422C-20,4421.3369140625,-19.736608505249023,4420.701171875,-19.26776695251465,4420.232421875C-18.798925399780273,4419.76318359375,-18.163042068481445,4419.5,-17.5,4419.5C-16.836957931518555,4419.5,-16.201074600219727,4419.76318359375,-15.732233047485352,4420.232421875C-15.263392448425293,4420.701171875,-15,4421.3369140625,-15,4422L-15,4422Z"
                                            fill-rule="nonzero" style="fill:#000000;fill-opacity:1">
                                          </path>
                                        </g>
                                      </g>
                                      <g id="shape-5eefe9ba-7673-80e3-8006-b4867428160d" style="opacity:1">
                                        <g class="fills" id="fills-5eefe9ba-7673-80e3-8006-b4867428160d">
                                          <path
                                            d="M-25.5,4422C-25.5,4422,-22.5,4416.5,-17.5,4416.5C-12.5,4416.5,-9.5,4422,-9.5,4422C-9.5,4422,-12.5,4427.5,-17.5,4427.5C-22.5,4427.5,-25.5,4422,-25.5,4422ZM-17.5,4425.5C-16.57174301147461,4425.5,-15.681503295898438,4425.13134765625,-15.025126457214355,4424.47509765625C-14.368749618530273,4423.818359375,-14,4422.92822265625,-14,4422C-14,4421.07177734375,-14.368749618530273,4420.181640625,-15.025126457214355,4419.52490234375C-15.681503295898438,4418.86865234375,-16.57174301147461,4418.5,-17.5,4418.5C-18.42825698852539,4418.5,-19.318496704101562,4418.86865234375,-19.974872589111328,4419.52490234375C-20.631250381469727,4420.181640625,-21,4421.07177734375,-21,4422C-21,4422.92822265625,-20.631250381469727,4423.818359375,-19.974872589111328,4424.47509765625C-19.318496704101562,4425.13134765625,-18.42825698852539,4425.5,-17.5,4425.5L-17.5,4425.5Z"
                                            fill-rule="nonzero" style="fill:#000000;fill-opacity:1">
                                          </path>
                                        </g>
                                      </g>
                                    </g>
                                  </g>
                                </g>
                              </g>
                            </g>
                          </g>
                        </g>
                      </g>
                    </g>
                  </g>
                </g>
              </g>
            </svg>