            <svg width="40" xmlns="http://www.w3.org/2000/svg" height="40"
              id="screenshot-5eefe9ba-7673-80e3-8006-b4867427f537" viewBox="-87.5 4402 40 40"
              style="-webkit-print-color-adjust::exact" xmlns:xlink="http://www.w3.org/1999/xlink" fill="none"
              version="1.1">
              <g id="shape-5eefe9ba-7673-80e3-8006-b4867427f537">
                <defs>
                  <clipPath id="frame-clip-5eefe9ba-7673-80e3-8006-b4867427f537-render-2632"
                    class="frame-clip frame-clip-def">
                    <rect rx="20" ry="20" x="-87.5" y="4402" width="40" height="40"
                      transform="matrix(1.000000, 0.000000, 0.000000, 1.000000, 0.000000, 0.000000)">
                    </rect>
                  </clipPath>
                </defs>
                <g class="frame-container-wrapper" opacity="1">
                  <g class="frame-container-blur">
                    <g class="frame-container-shadows">
                      <g clip-path="url(#frame-clip-5eefe9ba-7673-80e3-8006-b4867427f537-render-2632)" fill="none">
                        <g class="fills" id="fills-5eefe9ba-7673-80e3-8006-b4867427f537">
                          <rect rx="20" ry="20" x="-87.5" y="4402" width="40" height="40"
                            transform="matrix(1.000000, 0.000000, 0.000000, 1.000000, 0.000000, 0.000000)"
                            class="frame-background" style="fill:#ffffff;fill-opacity:1">
                          </rect>
                        </g>
                        <g class="frame-children">
                          <g id="shape-5eefe9ba-7673-80e3-8006-b4867427f539">
                            <defs>
                              <clipPath id="frame-clip-5eefe9ba-7673-80e3-8006-b4867427f539-render-2633"
                                class="frame-clip frame-clip-def">
                                <rect rx="0" ry="0" x="-77.5" y="4412" width="20" height="20"
                                  transform="matrix(1.000000, 0.000000, 0.000000, 1.000000, 0.000000, 0.000000)">
                                </rect>
                              </clipPath>
                            </defs>
                            <g class="frame-container-wrapper" opacity="1">
                              <g class="frame-container-blur">
                                <g class="frame-container-shadows">
                                  <g clip-path="url(#frame-clip-5eefe9ba-7673-80e3-8006-b4867427f539-render-2633)"
                                    fill="none">
                                    <g class="fills" id="fills-5eefe9ba-7673-80e3-8006-b4867427f539">
                                      <rect rx="0" ry="0" x="-77.5" y="4412" width="20" height="20"
                                        transform="matrix(1.000000, 0.000000, 0.000000, 1.000000, 0.000000, 0.000000)"
                                        class="frame-background" style="fill:#ffffff;fill-opacity:0">
                                      </rect>
                                    </g>
                                    <g class="frame-children">
                                      <g id="shape-5eefe9ba-7673-80e3-8006-b4867427f53b" style="opacity:1">
                                        <g class="fills" id="fills-5eefe9ba-7673-80e3-8006-b4867427f53b">
                                          <path
                                            d="M-77.5,4413.63330078125C-77.5,4413.46533203125,-77.43327331542969,4413.30419921875,-77.31449890136719,4413.185546875C-77.19571685791016,4413.06689453125,-77.03462219238281,4413,-76.86664581298828,4413L-74.96659088134766,4413C-74.82530975341797,4413,-74.68810272216797,4413.04736328125,-74.5767822265625,4413.13427734375C-74.46546173095703,4413.22119140625,-74.38642883300781,4413.3427734375,-74.35223388671875,4413.47998046875L-73.83921813964844,4415.533203125L-59.13276672363281,4415.533203125C-59.03976821899414,4415.533203125,-58.947933197021484,4415.55419921875,-58.86377716064453,4415.59375C-58.779624938964844,4415.63330078125,-58.705223083496094,4415.69091796875,-58.645851135253906,4415.76220703125C-58.586483001708984,4415.833984375,-58.543609619140625,4415.91748046875,-58.52027130126953,4416.0078125C-58.49692916870117,4416.09765625,-58.49370193481445,4416.19189453125,-58.51081085205078,4416.283203125L-60.41087341308594,4426.41650390625C-60.43804168701172,4426.5615234375,-60.51506423950195,4426.69287109375,-60.628631591796875,4426.787109375C-60.7421989440918,4426.88134765625,-60.88516616821289,4426.93310546875,-61.03282165527344,4426.93310546875L-72.43317413330078,4426.93310546875C-72.5808334350586,4426.93310546875,-72.72380065917969,4426.88134765625,-72.83737182617188,4426.787109375C-72.95093536376953,4426.69287109375,-73.02796173095703,4426.5615234375,-73.05513000488281,4426.41650390625L-74.95391845703125,4416.30224609375L-75.46060180664062,4414.2666015625L-76.86664581298828,4414.2666015625C-77.03462219238281,4414.2666015625,-77.19571685791016,4414.19970703125,-77.31449890136719,4414.0810546875C-77.43327331542969,4413.96240234375,-77.5,4413.80126953125,-77.5,4413.63330078125ZM-73.5706787109375,4416.7998046875L-71.9074935913086,4425.66650390625L-61.55850601196289,4425.66650390625L-59.89532470703125,4416.7998046875L-73.5706787109375,4416.7998046875ZM-71.16647338867188,4426.93310546875C-71.83837127685547,4426.93310546875,-72.48275756835938,4427.2001953125,-72.9578628540039,4427.67529296875C-73.43296813964844,4428.150390625,-73.69988250732422,4428.794921875,-73.69988250732422,4429.466796875C-73.69988250732422,4430.138671875,-73.43296813964844,4430.78271484375,-72.9578628540039,4431.2578125C-72.48275756835938,4431.73291015625,-71.83837127685547,4432,-71.16647338867188,4432C-70.49456787109375,4432,-69.85018157958984,4431.73291015625,-69.37507629394531,4431.2578125C-68.89997100830078,4430.78271484375,-68.633056640625,4430.138671875,-68.633056640625,4429.466796875C-68.633056640625,4428.794921875,-68.89997100830078,4428.150390625,-69.37507629394531,4427.67529296875C-69.85018157958984,4427.2001953125,-70.49456787109375,4426.93310546875,-71.16647338867188,4426.93310546875ZM-62.299530029296875,4426.93310546875C-62.971431732177734,4426.93310546875,-63.615814208984375,4427.2001953125,-64.0909194946289,4427.67529296875C-64.56603240966797,4428.150390625,-64.83293914794922,4428.794921875,-64.83293914794922,4429.466796875C-64.83293914794922,4430.138671875,-64.56603240966797,4430.78271484375,-64.0909194946289,4431.2578125C-63.615814208984375,4431.73291015625,-62.971431732177734,4432,-62.299530029296875,4432C-61.627628326416016,4432,-60.983245849609375,4431.73291015625,-60.508140563964844,4431.2578125C-60.03303146362305,4430.78271484375,-59.76612091064453,4430.138671875,-59.76612091064453,4429.466796875C-59.76612091064453,4428.794921875,-60.03303146362305,4428.150390625,-60.508140563964844,4427.67529296875C-60.983245849609375,4427.2001953125,-61.627628326416016,4426.93310546875,-62.299530029296875,4426.93310546875ZM-71.16647338867188,4428.2001953125C-70.83052062988281,4428.2001953125,-70.50833129882812,4428.33349609375,-70.2707748413086,4428.57080078125C-70.03321838378906,4428.80859375,-69.89976501464844,4429.130859375,-69.89976501464844,4429.466796875C-69.89976501464844,4429.802734375,-70.03321838378906,4430.125,-70.2707748413086,4430.3623046875C-70.50833129882812,4430.60009765625,-70.83052062988281,4430.7333984375,-71.16647338867188,4430.7333984375C-71.5024185180664,4430.7333984375,-71.82461547851562,4430.60009765625,-72.06216430664062,4430.3623046875C-72.29972076416016,4430.125,-72.43317413330078,4429.802734375,-72.43317413330078,4429.466796875C-72.43317413330078,4429.130859375,-72.29972076416016,4428.80859375,-72.06216430664062,4428.57080078125C-71.82461547851562,4428.33349609375,-71.5024185180664,4428.2001953125,-71.16647338867188,4428.2001953125ZM-62.299530029296875,4428.2001953125C-61.96357727050781,4428.2001953125,-61.641387939453125,4428.33349609375,-61.403831481933594,4428.57080078125C-61.16627883911133,4428.80859375,-61.03282165527344,4429.130859375,-61.03282165527344,4429.466796875C-61.03282165527344,4429.802734375,-61.16627883911133,4430.125,-61.403831481933594,4430.3623046875C-61.641387939453125,4430.60009765625,-61.96357727050781,4430.7333984375,-62.299530029296875,4430.7333984375C-62.63548278808594,4430.7333984375,-62.957672119140625,4430.60009765625,-63.195228576660156,4430.3623046875C-63.43278121948242,4430.125,-63.56623840332031,4429.802734375,-63.56623840332031,4429.466796875C-63.56623840332031,4429.130859375,-63.43278121948242,4428.80859375,-63.195228576660156,4428.57080078125C-62.957672119140625,4428.33349609375,-62.63548278808594,4428.2001953125,-62.299530029296875,4428.2001953125L-62.299530029296875,4428.2001953125Z"
                                            fill-rule="nonzero" style="fill:#252b42;fill-opacity:1">
                                          </path>
                                        </g>
                                      </g>
                                    </g>
                                  </g>
                                </g>
                              </g>
                            </g>
                          </g>
                        </g>
                      </g>
                    </g>
                  </g>
                </g>
              </g>
            </svg>