            <svg width="40" xmlns="http://www.w3.org/2000/svg" height="40"
              id="screenshot-5eefe9ba-7673-80e3-8006-b4867427a0cb" viewBox="-137.5 4402 40 40"
              style="-webkit-print-color-adjust::exact" xmlns:xlink="http://www.w3.org/1999/xlink" fill="none"
              version="1.1">
              <g id="shape-5eefe9ba-7673-80e3-8006-b4867427a0cb">
                <defs>
                  <clipPath id="frame-clip-5eefe9ba-7673-80e3-8006-b4867427a0cb-render-2617"
                    class="frame-clip frame-clip-def">
                    <rect rx="20" ry="20" x="-137.5" y="4402" width="40" height="40"
                      transform="matrix(1.000000, 0.000000, 0.000000, 1.000000, 0.000000, 0.000000)">
                    </rect>
                  </clipPath>
                </defs>
                <g class="frame-container-wrapper" opacity="1">
                  <g class="frame-container-blur">
                    <g class="frame-container-shadows">
                      <g clip-path="url(#frame-clip-5eefe9ba-7673-80e3-8006-b4867427a0cb-render-2617)" fill="none">
                        <g class="fills" id="fills-5eefe9ba-7673-80e3-8006-b4867427a0cb">
                          <rect rx="20" ry="20" x="-137.5" y="4402" width="40" height="40"
                            transform="matrix(1.000000, 0.000000, 0.000000, 1.000000, 0.000000, 0.000000)"
                            class="frame-background" style="fill:#ffffff;fill-opacity:1">
                          </rect>
                        </g>
                        <g class="frame-children">
                          <g id="shape-5eefe9ba-7673-80e3-8006-b4867427a0cd">
                            <defs>
                              <clipPath id="frame-clip-5eefe9ba-7673-80e3-8006-b4867427a0cd-render-2618"
                                class="frame-clip frame-clip-def">
                                <rect rx="0" ry="0" x="-127.5" y="4412" width="20" height="20"
                                  transform="matrix(1.000000, 0.000000, 0.000000, 1.000000, 0.000000, 0.000000)">
                                </rect>
                              </clipPath>
                            </defs>
                            <g class="frame-container-wrapper" opacity="1">
                              <g class="frame-container-blur">
                                <g class="frame-container-shadows">
                                  <g clip-path="url(#frame-clip-5eefe9ba-7673-80e3-8006-b4867427a0cd-render-2618)"
                                    fill="none">
                                    <g class="fills" id="fills-5eefe9ba-7673-80e3-8006-b4867427a0cd">
                                      <rect rx="0" ry="0" x="-127.5" y="4412" width="20" height="20"
                                        transform="matrix(1.000000, 0.000000, 0.000000, 1.000000, 0.000000, 0.000000)"
                                        class="frame-background" style="fill:#ffffff;fill-opacity:0">
                                      </rect>
                                    </g>
                                    <g class="frame-children">
                                      <g id="shape-5eefe9ba-7673-80e3-8006-b4867427f535" style="opacity:1">
                                        <g class="fills" id="fills-5eefe9ba-7673-80e3-8006-b4867427f535">
                                          <path
                                            d="M-113.46827697753906,4415.75C-113.01322937011719,4415.74951171875,-112.56268310546875,4415.83984375,-112.14305114746094,4416.01611328125C-111.72341918945312,4416.19189453125,-111.34314727783203,4416.4501953125,-111.02452850341797,4416.77490234375C-110.3680191040039,4417.44140625,-110.0000228881836,4418.33935546875,-110.0000228881836,4419.27490234375C-110.0000228881836,4420.21044921875,-110.3680191040039,4421.1083984375,-111.02452850341797,4421.77490234375L-117.49952697753906,4428.3310546875L-123.97453308105469,4421.77490234375C-124.63104248046875,4421.1083984375,-124.99903869628906,4420.21044921875,-124.99903869628906,4419.27490234375C-124.99903869628906,4418.33935546875,-124.63104248046875,4417.44140625,-123.97453308105469,4416.77490234375C-123.65572357177734,4416.4501953125,-123.27542114257812,4416.1923828125,-122.8558349609375,4416.0166015625C-122.43624877929688,4415.84033203125,-121.98579406738281,4415.74951171875,-121.53077697753906,4415.74951171875C-121.07576751708984,4415.74951171875,-120.62531280517578,4415.84033203125,-120.20572662353516,4416.0166015625C-119.78614044189453,4416.1923828125,-119.40583801269531,4416.4501953125,-119.08702850341797,4416.77490234375L-117.49952697753906,4418.39990234375L-115.91828155517578,4416.78759765625C-115.60063171386719,4416.458984375,-115.21994018554688,4416.197265625,-114.79898071289062,4416.01904296875C-114.37802124023438,4415.8408203125,-113.92543029785156,4415.74951171875,-113.46827697753906,4415.75L-113.46827697753906,4415.75ZM-113.46827697753906,4414.5C-114.08976745605469,4414.49951171875,-114.7051010131836,4414.623046875,-115.27821350097656,4414.86328125C-115.851318359375,4415.10400390625,-116.37065887451172,4415.4560546875,-116.80577850341797,4415.89990234375L-117.49952697753906,4416.60009765625L-118.19328308105469,4415.89990234375C-118.62893676757812,4415.45703125,-119.14840698242188,4415.10546875,-119.7214126586914,4414.865234375C-120.29441833496094,4414.625,-120.90949249267578,4414.50146484375,-121.53077697753906,4414.50146484375C-122.15206909179688,4414.50146484375,-122.76714324951172,4414.625,-123.34014892578125,4414.865234375C-123.91315460205078,4415.10546875,-124.43262481689453,4415.45703125,-124.86827850341797,4415.89990234375C-125.75460815429688,4416.80224609375,-126.251220703125,4418.0166015625,-126.251220703125,4419.28125C-126.251220703125,4420.5458984375,-125.75460815429688,4421.76025390625,-124.86827850341797,4422.66259765625L-117.49952697753906,4430.125L-110.13078308105469,4422.66259765625C-109.24445343017578,4421.76025390625,-108.74784088134766,4420.5458984375,-108.74784088134766,4419.28125C-108.74784088134766,4418.0166015625,-109.24445343017578,4416.80224609375,-110.13078308105469,4415.89990234375C-110.56632995605469,4415.45703125,-111.08575439453125,4415.10498046875,-111.65876007080078,4414.8642578125C-112.23177337646484,4414.6240234375,-112.8469009399414,4414.5,-113.46827697753906,4414.5L-113.46827697753906,4414.5Z"
                                            fill-rule="nonzero" style="fill:#bdbdbd;fill-opacity:1">
                                          </path>
                                        </g>
                                        <g fill-rule="nonzero"
                                          id="strokes-b06d45d9-21f5-8068-8006-b711dd2767c9-5eefe9ba-7673-80e3-8006-b4867427f535"
                                          class="strokes">
                                          <g class="inner-stroke-shape">
                                            <defs>
                                              <clipPath
                                                id="inner-stroke-render-2619-5eefe9ba-7673-80e3-8006-b4867427f535-0">
                                                <use
                                                  href="#stroke-shape-render-2619-5eefe9ba-7673-80e3-8006-b4867427f535-0">
                                                </use>
                                              </clipPath>
                                              <path
                                                d="M-113.46827697753906,4415.75C-113.01322937011719,4415.74951171875,-112.56268310546875,4415.83984375,-112.14305114746094,4416.01611328125C-111.72341918945312,4416.19189453125,-111.34314727783203,4416.4501953125,-111.02452850341797,4416.77490234375C-110.3680191040039,4417.44140625,-110.0000228881836,4418.33935546875,-110.0000228881836,4419.27490234375C-110.0000228881836,4420.21044921875,-110.3680191040039,4421.1083984375,-111.02452850341797,4421.77490234375L-117.49952697753906,4428.3310546875L-123.97453308105469,4421.77490234375C-124.63104248046875,4421.1083984375,-124.99903869628906,4420.21044921875,-124.99903869628906,4419.27490234375C-124.99903869628906,4418.33935546875,-124.63104248046875,4417.44140625,-123.97453308105469,4416.77490234375C-123.65572357177734,4416.4501953125,-123.27542114257812,4416.1923828125,-122.8558349609375,4416.0166015625C-122.43624877929688,4415.84033203125,-121.98579406738281,4415.74951171875,-121.53077697753906,4415.74951171875C-121.07576751708984,4415.74951171875,-120.62531280517578,4415.84033203125,-120.20572662353516,4416.0166015625C-119.78614044189453,4416.1923828125,-119.40583801269531,4416.4501953125,-119.08702850341797,4416.77490234375L-117.49952697753906,4418.39990234375L-115.91828155517578,4416.78759765625C-115.60063171386719,4416.458984375,-115.21994018554688,4416.197265625,-114.79898071289062,4416.01904296875C-114.37802124023438,4415.8408203125,-113.92543029785156,4415.74951171875,-113.46827697753906,4415.75L-113.46827697753906,4415.75ZM-113.46827697753906,4414.5C-114.08976745605469,4414.49951171875,-114.7051010131836,4414.623046875,-115.27821350097656,4414.86328125C-115.851318359375,4415.10400390625,-116.37065887451172,4415.4560546875,-116.80577850341797,4415.89990234375L-117.49952697753906,4416.60009765625L-118.19328308105469,4415.89990234375C-118.62893676757812,4415.45703125,-119.14840698242188,4415.10546875,-119.7214126586914,4414.865234375C-120.29441833496094,4414.625,-120.90949249267578,4414.50146484375,-121.53077697753906,4414.50146484375C-122.15206909179688,4414.50146484375,-122.76714324951172,4414.625,-123.34014892578125,4414.865234375C-123.91315460205078,4415.10546875,-124.43262481689453,4415.45703125,-124.86827850341797,4415.89990234375C-125.75460815429688,4416.80224609375,-126.251220703125,4418.0166015625,-126.251220703125,4419.28125C-126.251220703125,4420.5458984375,-125.75460815429688,4421.76025390625,-124.86827850341797,4422.66259765625L-117.49952697753906,4430.125L-110.13078308105469,4422.66259765625C-109.24445343017578,4421.76025390625,-108.74784088134766,4420.5458984375,-108.74784088134766,4419.28125C-108.74784088134766,4418.0166015625,-109.24445343017578,4416.80224609375,-110.13078308105469,4415.89990234375C-110.56632995605469,4415.45703125,-111.08575439453125,4415.10498046875,-111.65876007080078,4414.8642578125C-112.23177337646484,4414.6240234375,-112.8469009399414,4414.5,-113.46827697753906,4414.5L-113.46827697753906,4414.5Z"
                                                style="fill:none;fill-opacity:none;stroke-width:1.25;stroke:#252b42;stroke-opacity:1"
                                                id="stroke-shape-render-2619-5eefe9ba-7673-80e3-8006-b4867427f535-0">
                                              </path>
                                            </defs>
                                            <use href="#stroke-shape-render-2619-5eefe9ba-7673-80e3-8006-b4867427f535-0"
                                              clip-path="url(&#x27;#inner-stroke-render-2619-5eefe9ba-7673-80e3-8006-b4867427f535-0&#x27;)">
                                            </use>
                                          </g>
                                        </g>
                                      </g>
                                    </g>
                                  </g>
                                </g>
                              </g>
                            </g>
                          </g>
                        </g>
                      </g>
                    </g>
                  </g>
                </g>
              </g>
            </svg>