          <svg width="8.617" xmlns="http://www.w3.org/2000/svg" height="16"
            id="screenshot-5eefe9ba-7673-80e3-8006-b486741bf268" viewBox="522 2808.5 8.617 16"
            style="-webkit-print-color-adjust::exact" xmlns:xlink="http://www.w3.org/1999/xlink" fill="none"
            version="1.1">
            <g id="shape-5eefe9ba-7673-80e3-8006-b486741bf268" style="opacity:1">
              <defs></defs>
              <g class="fills" id="fills-5eefe9ba-7673-80e3-8006-b486741bf268">
                <path
                  d="M522.1807861328125,2808.6806640625C522.2379150390625,2808.62353515625,522.3058471679688,2808.578125,522.3805541992188,2808.546875C522.455322265625,2808.515869140625,522.5354614257812,2808.5,522.6163940429688,2808.5C522.6973266601562,2808.5,522.7774658203125,2808.515869140625,522.8522338867188,2808.546875C522.927001953125,2808.578125,522.994873046875,2808.62353515625,523.0520629882812,2808.6806640625L530.435791015625,2816.064453125C530.4931030273438,2816.12158203125,530.53857421875,2816.189697265625,530.569580078125,2816.264404296875C530.6005859375,2816.339111328125,530.6165771484375,2816.419189453125,530.6165771484375,2816.500244140625C530.6165771484375,2816.5810546875,530.6005859375,2816.6611328125,530.569580078125,2816.736083984375C530.53857421875,2816.810791015625,530.4931030273438,2816.878662109375,530.435791015625,2816.935791015625L523.0520629882812,2824.319580078125C522.9365234375,2824.43505859375,522.77978515625,2824.5,522.6163940429688,2824.5C522.4530029296875,2824.5,522.2963256835938,2824.43505859375,522.1807861328125,2824.319580078125C522.0652465820312,2824.2041015625,522.0003051757812,2824.04736328125,522.0003051757812,2823.8837890625C522.0003051757812,2823.720458984375,522.0652465820312,2823.563720703125,522.1807861328125,2823.4482421875L529.130126953125,2816.500244140625L522.1807861328125,2809.552001953125C522.1234741210938,2809.494873046875,522.0780029296875,2809.427001953125,522.0469970703125,2809.352294921875C522.0159912109375,2809.277587890625,522,2809.197265625,522,2809.116455078125C522,2809.035400390625,522.0159912109375,2808.955322265625,522.0469970703125,2808.880615234375C522.0780029296875,2808.805908203125,522.1234741210938,2808.738037109375,522.1807861328125,2808.6806640625L522.1807861328125,2808.6806640625Z"
                  fill-rule="evenodd" style="fill:#8d5cf6;fill-opacity:1"></path>
              </g>
            </g>
          </svg>